<?xml version="1.0" encoding="UTF-8"?>
<svg width="512px" height="70px" viewBox="0 0 512 70" version="1.1" xmlns="http://www.w3.org/2000/svg" xmlns:xlink="http://www.w3.org/1999/xlink">
    <!-- Generator: Sketch 43.2 (39069) - http://www.bohemiancoding.com/sketch -->
    <title>apoio-ford</title>
    <desc>Created with Sketch.</desc>
    <defs>
        <polygon id="path-1" points="411.998595 32.6887583 411.998595 0.234341667 0.0919214286 0.234341667 0.0919214286 32.6887583"></polygon>
        <polygon id="path-3" points="0.763227273 0.291428571 14.3586818 0.291428571 14.3586818 7.702 0.763227273 7.702 0.763227273 0.291428571"></polygon>
    </defs>
    <g id="Page-1" stroke="none" stroke-width="1" fill="none" fill-rule="evenodd">
        <g id="apoio-ford">
            <g id="Page-1" transform="translate(7.000000, 5.000000)">
                <g id="Group-3" transform="translate(87.000000, 14.000000)">
                    <mask id="mask-2" fill="white">
                        <use xlink:href="#path-1"></use>
                    </mask>
                    <g id="Clip-2"></g>
                    <path d="M211.053445,20.029425 C211.053445,28.0803417 206.091826,29.5565083 201.70054,29.5565083 C197.30785,29.5565083 192.372921,28.070425 192.372921,20.029425 L192.372921,1.01350833 L189.266993,1.01350833 L189.266993,20.390675 C189.266993,25.5317583 191.181683,32.6887583 201.70054,32.6887583 C212.230636,32.6887583 214.159374,25.562925 214.159374,20.390675 L214.159374,1.01350833 L211.053445,1.01350833 L211.053445,20.029425 Z M0.0919214286,31.908175 L4.23456429,31.908175 L4.23456429,18.537675 L20.7967071,18.537675 L20.7967071,14.6220083 L4.23456429,14.6220083 L4.23456429,4.93625833 L21.8221833,4.93625833 L21.8221833,1.01350833 L0.0919214286,1.01350833 L0.0919214286,31.908175 Z M41.2725167,0.234341667 C31.9322548,0.234341667 25.3102071,7.30209167 25.3102071,16.4580083 C25.3102071,25.6167583 31.9322548,32.6887583 41.2725167,32.6887583 C50.6183976,32.6887583 57.2460643,25.6167583 57.2460643,16.4580083 C57.2460643,7.30209167 50.6183976,0.234341667 41.2725167,0.234341667 L41.2725167,0.234341667 Z M41.2725167,28.7560917 C34.26135,28.7560917 29.7225643,23.2155083 29.7225643,16.4580083 C29.7225643,9.69200833 34.26135,4.159925 41.2725167,4.159925 C48.279469,4.159925 52.8266833,9.69200833 52.8266833,16.4580083 C52.8266833,23.2155083 48.279469,28.7560917 41.2725167,28.7560917 L41.2725167,28.7560917 Z M88.2618024,9.65234167 C88.2618024,5.770675 86.2614214,1.01350833 78.4425167,1.01350833 L62.6951357,1.01350833 L62.6951357,31.908175 L66.8462071,31.908175 L66.8462071,18.286925 L76.4589929,18.286925 L84.2329452,31.908175 L89.42635,31.908175 L80.718231,17.815175 C85.3623738,17.2910083 88.2618024,13.5878417 88.2618024,9.65234167 L88.2618024,9.65234167 Z M66.8462071,14.6220083 L66.8462071,4.67984167 L77.2695405,4.67984167 C80.5510643,4.67984167 83.85085,5.46325833 83.85085,9.65234167 C83.85085,13.8513417 80.5510643,14.6220083 77.2695405,14.6220083 L66.8462071,14.6220083 Z M106.398683,1.01350833 L95.7140643,1.01350833 L95.7140643,31.908175 L105.696302,31.908175 C116.656255,31.908175 122.494445,24.3530917 122.494445,16.4580083 C122.494445,10.738925 119.321088,1.01350833 106.398683,1.01350833 L106.398683,1.01350833 Z M105.085231,27.9655917 L99.8721595,27.9655917 L99.8721595,4.93625833 L106.098064,4.93625833 C116.046588,4.93625833 118.075064,12.5352583 118.075064,16.4580083 C118.075064,24.096675 112.103421,27.9655917 105.085231,27.9655917 L105.085231,27.9655917 Z M128.203398,31.908175 L131.324779,31.908175 L131.324779,17.2910083 L148.094826,17.2910083 L148.094826,14.4123417 L131.324779,14.4123417 L131.324779,3.88934167 L149.16385,3.88934167 L149.16385,1.01350833 L128.203398,1.01350833 L128.203398,31.908175 Z M167.976421,0.234341667 C158.852493,0.234341667 152.011302,7.08675833 152.011302,16.4580083 C152.011302,25.839175 158.852493,32.6887583 167.976421,32.6887583 C177.108779,32.6887583 183.937326,25.839175 183.937326,16.4580083 C183.937326,7.08675833 177.108779,0.234341667 167.976421,0.234341667 L167.976421,0.234341667 Z M167.976421,29.8030083 C160.104136,29.8030083 155.38554,23.5668417 155.38554,16.4580083 C155.38554,9.35200833 160.104136,3.11300833 167.976421,3.11300833 C175.865564,3.11300833 180.571517,9.35200833 180.571517,16.4580083 C180.571517,23.5668417 175.865564,29.8030083 167.976421,29.8030083 L167.976421,29.8030083 Z M244.18616,27.1963417 L244.09766,27.1963417 L225.839969,1.01350833 L221.958612,1.01350833 L221.958612,31.908175 L225.077183,31.908175 L225.077183,5.46325833 L225.151636,5.46325833 L243.400898,31.908175 L247.299112,31.908175 L247.299112,1.01350833 L244.18616,1.01350833 L244.18616,27.1963417 Z M265.346088,1.01350833 L255.177017,1.01350833 L255.177017,31.908175 L265.346088,31.908175 C272.993612,31.908175 281.429207,26.7543417 281.429207,16.4580083 C281.429207,6.15884167 272.993612,1.01350833 265.346088,1.01350833 L265.346088,1.01350833 Z M264.348707,29.0195917 L258.291374,29.0195917 L258.291374,3.88934167 L264.348707,3.88934167 C273.697398,3.88934167 278.060588,10.101425 278.060588,16.4580083 C278.060588,22.8315917 273.697398,29.0195917 264.348707,29.0195917 L264.348707,29.0195917 Z M296.363231,1.01350833 L283.048898,31.908175 L286.684421,31.908175 L290.044612,23.8005917 L305.704898,23.8005917 L309.084755,31.908175 L312.721683,31.908175 L299.398921,1.01350833 L296.363231,1.01350833 Z M291.216183,20.917675 L297.878969,4.67984167 L304.505231,20.917675 L291.216183,20.917675 Z M310.391183,3.88934167 L320.641731,3.88934167 L320.641731,31.908175 L323.758898,31.908175 L323.758898,3.88934167 L334.002421,3.88934167 L334.002421,1.01350833 L310.391183,1.01350833 L310.391183,3.88934167 Z M338.777207,31.908175 L341.877517,31.908175 L341.877517,1.01350833 L338.777207,1.01350833 L338.777207,31.908175 Z M364.471707,0.234341667 C355.333731,0.234341667 348.505183,7.08675833 348.505183,16.4580083 C348.505183,25.839175 355.333731,32.6887583 364.471707,32.6887583 C373.59704,32.6887583 380.424183,25.839175 380.424183,16.4580083 C380.424183,7.08675833 373.59704,0.234341667 364.471707,0.234341667 L364.471707,0.234341667 Z M364.471707,29.8030083 C356.585374,29.8030083 351.879421,23.5668417 351.879421,16.4580083 C351.879421,9.35200833 356.585374,3.11300833 364.471707,3.11300833 C372.332755,3.11300833 377.05135,9.35200833 377.05135,16.4580083 C377.05135,23.5668417 372.332755,29.8030083 364.471707,29.8030083 L364.471707,29.8030083 Z M408.891683,1.01350833 L408.891683,27.1963417 L408.803183,27.1963417 L390.553921,1.01350833 L386.658517,1.01350833 L386.658517,31.908175 L389.772874,31.908175 L389.772874,5.46325833 L389.85716,5.46325833 L408.11485,31.908175 L411.999017,31.908175 L411.999017,1.01350833 L408.891683,1.01350833 Z" id="Fill-1" fill="#6B471F" mask="url(#mask-2)"></path>
                </g>
                <path d="M22,17.5296552 C22.5457872,20.56 24.7430758,23.0055172 27.6628961,24 C28.5338934,23.6386207 29.4939699,23.4386207 30.5035349,23.4386207 C31.510272,23.4386207 32.4689345,23.6386207 33.3427597,24 C36.2569242,23.0055172 38.4542128,20.5613793 39,17.5324138 C38.8953672,17.0593103 38.8331531,16.5710345 38.8331531,16.0675862 C38.8331531,15.5641379 38.8939533,15.0758621 39,14.6027586 C38.4273476,11.4262069 36.0391749,8.89103448 32.911503,8.00137931 C32.1578641,8.27034483 31.3519088,8.44137931 30.5035349,8.44137931 C29.652333,8.44137931 28.8463778,8.27034483 28.089911,8 C24.963653,8.89103448 22.5754803,11.4262069 22,14.6055172 C22.1060467,15.0772414 22.1682608,15.5655172 22.1682608,16.0675862 C22.1682608,16.5710345 22.1060467,17.057931 22,17.5296552 M30.5035349,12.0041379 C32.8012143,12.0082759 34.6648091,13.822069 34.667637,16.0675862 C34.6648091,18.3075862 32.8012143,20.1241379 30.5035349,20.1296552 C28.2016136,20.1241379 26.3394328,18.3075862 26.332363,16.0675862 C26.3394328,13.822069 28.2016136,12.0082759 30.5035349,12.0041379" id="Fill-4" fill="#8C81A1"></path>
                <path d="M39,17.4932304 C39.6896202,20.6383512 42.5191956,22.9985959 45.9161081,23 C49.8348568,22.9985959 53,19.8647077 53,16.0021061 C53,12.1338883 49.8348568,9.00280814 45.9161081,9 C42.5191956,9.00280814 39.6896202,11.3616488 39,14.5109818 C39.0867357,14.9981948 39.152143,15.492428 39.152143,16.0021061 C39.152143,16.5131882 39.0867357,17.0074215 39,17.4932304 M45.9161081,10.2734931 C49.1210644,10.2791094 51.7117611,12.8387323 51.7174487,16.0021061 C51.7117611,19.1626717 49.1210644,21.7208906 45.9161081,21.7265069 C42.7196831,21.7208906 40.1289864,19.1626717 40.1218769,16.0021061 C40.1289864,12.8387323 42.7196831,10.2791094 45.9161081,10.2734931" id="Fill-6" fill="#C0B430"></path>
                <path d="M15.0888415,23 C18.4776119,22.9985959 21.3063255,20.6369471 22,17.4904222 C21.9147122,17.0046134 21.8493248,16.5131882 21.8493248,16.0021061 C21.8493248,15.492428 21.9147122,14.9995988 22,14.51379 C21.3063255,11.3630529 18.4776119,9 15.0888415,9 C11.169865,9 8,12.1338883 8,16.0021061 C8,19.8633036 11.169865,22.9985959 15.0888415,23 M15.0888415,10.2720891 C18.2914001,10.2791094 20.8742004,12.8387323 20.8813077,16.0021061 C20.8742004,19.1626717 18.2914001,21.7208906 15.0888415,21.7265069 C11.8862829,21.7208906 9.29921819,19.1626717 9.29211087,16.0021061 C9.29921819,12.8387323 11.8862829,10.2791094 15.0888415,10.2720891" id="Fill-8" fill="#66A7BC"></path>
                <path d="M22.106,17 C22.181,16.5160377 22.225,16.0165094 22.225,15.5 C22.225,14.9849057 22.181,14.4839623 22.106,14 C22.045,14.4896226 22,14.9863208 22,15.5 C22,16.0150943 22.045,16.5103774 22.106,17" id="Fill-10" fill="#4D6A88"></path>
                <path d="M27.5872447,24 C24.8929643,25.1070817 23.0029033,27.6963836 23,30.7158255 C23.0029033,34.7408079 26.3605923,38 30.5036291,38 C34.6437627,38 38,34.7408079 38,30.7158255 C38,27.6963836 36.1128423,25.1056714 33.4200135,24 C32.5011129,24.3102649 31.5299526,24.5147577 30.5036291,24.5147577 C29.4744024,24.5147577 28.5017904,24.3102649 27.5872447,24 M36.1621988,30.7158255 C36.1549405,33.7493704 33.6305042,36.2061046 30.5036291,36.2103354 C27.3753024,36.2061046 24.8450595,33.7493704 24.8421562,30.7158255 C24.8450595,27.6808704 27.3753024,25.2213156 30.5036291,25.2170847 C33.6305042,25.2213156 36.1549405,27.6808704 36.1621988,30.7158255" id="Fill-12" fill="#2BABE2"></path>
                <path d="M27,23.407 C27.9407666,23.627 28.9412643,23.772 30,23.772 C31.0557491,23.772 32.0547536,23.627 33,23.407 C32.0756595,23.145 31.0632155,23.001 30,23 C28.9337979,23.001 27.9198606,23.145 27,23.407" id="Fill-14" fill="#0271A2"></path>
                <g id="Group-18" transform="translate(22.000000, 0.000000)">
                    <mask id="mask-4" fill="white">
                        <use xlink:href="#path-3"></use>
                    </mask>
                    <g id="Clip-17"></g>
                    <path d="M9.88459091,7.702 C12.4877727,6.70342857 14.3559545,4.10914286 14.3586818,1.03485714 C14.3586818,0.876285714 14.3232273,0.729142857 14.3136818,0.572 C13.8964091,0.472 13.4736818,0.374857143 13.0495909,0.290571429 C13.0782273,0.536285714 13.1218636,0.780571429 13.1218636,1.03485714 C13.1164091,4.25342857 10.6332273,6.85485714 7.56095455,6.85771429 C4.48731818,6.85485714 2.00277273,4.25057143 1.99595455,1.03485714 C1.99595455,0.780571429 2.03959091,0.536285714 2.06959091,0.292 C1.6455,0.374857143 1.22686364,0.470571429 0.810954545,0.572 C0.800045455,0.729142857 0.763227273,0.876285714 0.763227273,1.03485714 C0.763227273,4.10771429 2.63140909,6.70342857 5.23459091,7.70057143 C5.97913636,7.47485714 6.74686364,7.31485714 7.56095455,7.31485714 C8.37231818,7.31485714 9.14277273,7.47485714 9.88459091,7.702" id="Fill-16" fill="#DF852D" mask="url(#mask-4)"></path>
                </g>
                <path d="M33,7.271 C32.202346,7.112 31.3739003,7 30.5014663,7 C29.6260997,7 28.8005865,7.112 28,7.27 C28.7844575,7.466 29.6187683,7.59 30.5014663,7.59 C31.3812317,7.59 32.2170088,7.466 33,7.271" id="Fill-19" fill="#875838"></path>
                <path d="M42.1938016,52.0013412 C39.501988,53.0648785 37.5195229,55.3663034 37,58.1451802 C37.1056173,58.605197 37.169844,59.0786253 37.169844,59.5681475 C37.169844,59.7156748 37.1327352,59.8538139 37.1227444,60 C38.6156591,59.6767812 40.0686105,59.2516345 41.4744622,58.733948 C41.8798043,56.9528919 43.5596901,55.6184409 45.5749822,55.6170997 C46.1658681,55.6170997 46.7253543,55.7337804 47.2348863,55.9403185 C48.5708023,55.1155071 49.8182282,54.1847443 51,53.1802179 C50.3762871,52.7121542 49.7069018,52.2950545 48.9604445,52 C47.9328168,52.470746 46.79529,52.7577536 45.5749822,52.7577536 C44.3575288,52.7577536 43.2214293,52.470746 42.1938016,52.0013412" id="Fill-21" fill="#2BABE2"></path>
                <path d="M37,58.7024523 C36.303624,55.4428701 33.4811694,53 30.0845599,53 C26.1720637,53 23,56.2406903 23,60.2428701 C23,60.404178 23.0383717,60.5553134 23.0497411,60.7137148 C23.4831997,60.8168937 23.9195006,60.915713 24.3614861,60.9985468 C24.3287991,60.7500454 24.2847427,60.5015441 24.2847427,60.2428701 C24.2918485,56.964396 26.8812303,54.3195277 30.0845599,54.315168 C33.2864684,54.3195277 35.874429,56.964396 35.8786925,60.2428701 C35.8786925,60.5015441 35.8346361,60.7500454 35.8047914,61 C36.1728759,60.9302452 36.538118,60.8532243 36.9005177,60.7703906 C36.886306,60.5930972 36.8479342,60.4230699 36.8479342,60.2428701 C36.8479342,59.7153497 36.9133083,59.2052679 37,58.7024523" id="Fill-23" fill="#C0B430"></path>
                <path d="M37.107,59 C37.046,59.4862966 37,59.9796205 37,60.4898103 C37,60.66409 37.027,60.8285313 37.037,61 C37.09,60.9831342 37.14,60.962052 37.193,60.9437807 C37.2,60.7905833 37.226,60.6458187 37.226,60.4898103 C37.226,59.978215 37.181,59.4806746 37.107,59" id="Fill-25" fill="#027F40"></path>
                <path d="M18.2426816,53 C21.5874495,51.8289601 24,48.6724879 24,44.9234752 C24,41.3569987 21.8355735,38.3016235 18.7487425,37 C17.7394244,37.4914436 16.6221654,37.7905222 15.4278057,37.7905222 C14.2320442,37.7905222 13.116187,37.4914436 12.1082708,37 C9.46441824,38.1134708 7.51307001,40.5201404 7,43.4238701 C7.1051373,43.9082931 7.17102334,44.4081615 7.17102334,44.9234752 C7.17102334,45.4387889 7.1051373,45.9372532 7,46.4216762 C7.54391028,49.5009215 9.72375691,51.9876262 12.611528,52.9985959 C13.4778593,52.6321194 14.4297023,52.4299254 15.4278057,52.4299254 C16.427311,52.4299254 17.3777521,52.6321194 18.2426816,53 M11.2966109,44.9234752 C11.3022182,42.6403686 13.1456255,40.7897323 15.4278057,40.7869241 C17.7085842,40.7897323 19.5477859,42.6403686 19.5575987,44.9234752 C19.5477859,47.2051777 17.7085842,49.0544098 15.4278057,49.0600263 C13.1484291,49.0544098 11.3022182,47.2051777 11.2966109,44.9234752" id="Fill-27" fill="#A2A179"></path>
                <path d="M7,43.6208631 C6.37363404,40.6225841 3.9658219,38.3538523 1,38 C1.11299698,38.4514165 1.20088352,38.91157 1.33201581,39.3542494 C3.93373634,39.9003177 5.89514066,42.292825 5.90211579,45.1760657 C5.89932574,46.1386021 5.65798651,47.0341541 5.26598465,47.8379666 C5.53103929,48.2384167 5.8225994,48.6126555 6.10160428,49 C6.51592653,48.3083135 6.82980702,47.5481864 7,46.7283558 C6.91629854,46.2230606 6.84933736,45.7075721 6.84933736,45.1760657 C6.84933736,44.643103 6.91629854,44.1290707 7,43.6208631" id="Fill-29" fill="#2BABE2"></path>
                <path d="M6.108,44 C6.048,44.4906279 6,44.9868791 6,45.5014058 C6,46.0145267 6.048,46.5121837 6.108,47 C6.183,46.5164011 6.23,46.0173383 6.23,45.5014058 C6.23,44.9854733 6.183,44.4850047 6.108,44" id="Fill-31" fill="#02867D"></path>
                <path d="M18.4133463,53.0014324 C17.4963062,53.3165541 16.5240402,53.5228156 15.4950951,53.5228156 C14.4676032,53.5228156 13.4953373,53.3165541 12.5753906,53 C12.0071455,53.2363413 11.4883129,53.5614897 11,53.9224473 C11.4999394,54.3292408 12.0303984,54.6944956 12.5550442,55.0712093 C13.4124985,54.5526908 14.415284,54.2375691 15.4950951,54.2361367 C18.4947317,54.2418662 20.9188567,56.5436873 21.1179605,59.4514017 C21.7312583,59.6562308 22.3547293,59.8324125 22.9825603,60 C22.9825603,59.9398404 23,59.8825455 23,59.8209536 C23,56.754246 21.1077873,54.1229793 18.4133463,53.0014324" id="Fill-33" fill="#617996"></path>
                <path d="M18,53.406 C17.0784167,53.144 16.0657207,53 15.0007468,53 C13.9372666,53 12.9230769,53.144 12,53.405 C12.9454817,53.626 13.9447349,53.77 15.0007468,53.77 C16.0582524,53.77 17.0575056,53.626 18,53.406" id="Fill-35" fill="#50635E"></path>
                <path d="M45.9119465,8 C47.4480888,8 48.8510155,7.48588351 50,6.64284304 C49.6572474,6.36643633 49.2950675,6.11628825 48.9412136,5.85370188 C48.0628233,6.40927937 47.0290148,6.74234946 45.9119465,6.74234946 C42.8799041,6.73958539 40.4292923,4.35972359 40.2822001,1.370385 C39.8659013,1.23356367 39.435726,1.11885489 39.0097136,1 C39.0097136,1.03593287 39,1.07186575 39,1.10918065 C39,4.91530109 42.0930995,8 45.9119465,8" id="Fill-37" fill="#617996"></path>
                <path d="M22,1.03366792 C22,1.02195734 21.9970733,1.01171058 21.9970733,1 C21.7717174,1.0644082 21.5434349,1.11417817 21.3224691,1.18297783 C21.2346681,4.59222083 18.4630837,7.32664157 15.0403086,7.33396069 C13.7496342,7.33103304 12.5540774,6.94019239 11.5546096,6.27708072 C11.3716908,6.41614387 11.1829187,6.54642409 11,6.68987871 C12.1428761,7.50669176 13.5315951,8 15.0403086,8 C18.8859918,8 22,4.88352154 22,1.03366792" id="Fill-39" fill="#2BABE2"></path>
                <path d="M60,24 C59.7814251,23.0666192 59.5264211,22.1503384 59.2279824,21.2525828 C57.1038831,20.634129 55.5458367,18.6704667 55.5416333,16.313502 C55.5416333,15.6095476 55.6831465,14.9397934 55.9339472,14.3298896 C55.4197358,13.5261845 54.8718975,12.7524047 54.2904323,12 C53.4777822,13.2340577 53,14.716067 53,16.313502 C53,20.3762024 56.0880705,23.673673 60,24" id="Fill-41" fill="#2BABE2"></path>
                <path d="M39.118,17 C39.179,16.5112994 39.225,16.0141243 39.225,15.5 C39.225,14.9872881 39.179,14.490113 39.118,14 C39.043,14.4844633 39,14.9844633 39,15.5 C39,16.0169492 39.044,16.5155367 39.118,17" id="Fill-43" fill="#6D5F26"></path>
                <path d="M7,15.41008 C7,14.1592026 6.62255021,13.0009827 6.00556496,12 C5.86329543,12.188123 5.71086378,12.3678225 5.57004597,12.5601572 C6.04476167,13.4123263 6.34236632,14.3739997 6.34236632,15.41008 C6.33801113,18.3905658 4.10379869,20.8459919 1.17275587,21.3471852 C1.10597629,21.5605784 1.05952093,21.7823951 1,22 C4.38107912,21.5675979 7,18.7991015 7,15.41008" id="Fill-45" fill="#979F83"></path>
                <path d="M55.3314501,31.0028317 C55.3358443,27.9120146 57.8478761,25.4158576 61,25.2586974 C60.9165097,24.8339401 60.8169073,24.4162621 60.7187696,24 C56.9690312,24.2902508 54,27.2947006 54,31.0028317 C54,34.7052994 56.9719607,37.711165 60.7231638,38 C60.8198368,37.5837379 60.9194392,37.1674757 61,36.7441343 C57.8478761,36.5855583 55.3358443,34.092233 55.3314501,31.0028317" id="Fill-47" fill="#66A7BC"></path>
                <path d="M45.4965851,24 C41.9095303,24 39,26.9139344 39,30.5 C39,34.0942623 41.9095303,37 45.4965851,37 C49.0877377,37 52,34.0942623 52,30.5 C52,26.9139344 49.0877377,24 45.4965851,24 M45.4965851,36.3838798 C42.2537564,36.3770492 39.6228854,33.75 39.6201534,30.5 C39.6228854,27.2554645 42.2578544,24.6270492 45.4965851,24.6188525 C48.7476095,24.6270492 51.3757487,27.2554645 51.3757487,30.5 C51.3757487,33.75 48.7476095,36.3770492 45.4965851,36.3838798" id="Fill-49" fill="#617996"></path>
                <path d="M7,31.0028317 C7,27.2961165 4.03243356,24.2916667 0.281230383,24 C0.180163214,24.417678 0.0834902699,24.8339401 0,25.2586974 C3.15505336,25.4172735 5.66269094,27.9148463 5.67001465,31.0028317 C5.66269094,34.092233 3.15358862,36.5841424 0,36.7441343 C0.0805607868,37.1674757 0.180163214,37.5837379 0.279765641,38 C4.03243356,37.7097492 7,34.7052994 7,31.0028317" id="Fill-51" fill="#DF852D"></path>
                <path d="M54,45.1231334 C54,46.5527715 54.4666667,47.8780056 55.2434409,49 C55.6694624,48.4835485 56.1,47.9726651 56.4929032,47.4325487 C56.1331183,46.7295621 55.911828,45.9527968 55.911828,45.1231334 C55.9193548,42.5450519 57.8582796,40.4012908 60.4565591,39.8444698 C60.6643011,39.2389269 60.8313978,38.6194634 61,38 C57.0739785,38.3633257 54,41.3938243 54,45.1231334" id="Fill-53" fill="#2BABE2"></path>
                <path d="M30.5020485,52 C34.0924467,52 37,49.0894095 37,45.5027317 C37,41.9119563 34.0924467,39 30.5020485,39 C26.9102847,39 24,41.9119563 24,45.5027317 C24,49.0894095 26.9102847,52 30.5020485,52 M30.5020485,39.6187224 C33.7496586,39.6255516 36.3758798,42.2520487 36.3813426,45.5027317 C36.3758798,48.7465854 33.7496586,51.3771801 30.5020485,51.3812776 C27.2503414,51.3771801 24.6227545,48.7465854 24.6172917,45.5027317 C24.6227545,42.2561462 27.2503414,39.6255516 30.5020485,39.6187224" id="Fill-55" fill="#72A541"></path>
                <path d="M17.7676749,37 C20.2651466,35.802444 22,33.305499 22,30.3849287 C22,26.3048201 18.6433759,23.0027155 14.5006895,23 C10.355245,23.0027155 7,26.3048201 7,30.3849287 C7,33.305499 8.73761147,35.802444 11.2350832,37 C12.2404156,36.5831636 13.3436609,36.3523422 14.5006895,36.3523422 C15.6618553,36.3523422 16.7623426,36.5845214 17.7676749,37 M9.5016089,30.3849287 C9.50436701,27.6666667 11.7343017,25.467074 14.5006895,25.4630007 C17.2546658,25.467074 19.4914958,27.6666667 19.4983911,30.3849287 C19.4914958,33.0991174 17.2546658,35.3000679 14.5006895,35.3041412 C11.7343017,35.3000679 9.50436701,33.0991174 9.5016089,30.3849287" id="Fill-57" fill="#A79994"></path>
                <path d="M19,37.4586538 C17.9227359,37.1644231 16.7435085,37 15.4992611,37 C14.2594469,37 13.0772641,37.1634615 12,37.4586538 C13.0624868,37.7951923 14.2387587,38 15.4992611,38 C16.7582858,38 17.9360355,37.7951923 19,37.4586538" id="Fill-59" fill="#6C664A"></path>
                <path d="M53,45.3850034 C53,41.3041032 49.6450634,38 45.5,38 C41.3604523,38 38.0041368,41.3041032 38,45.3850034 C38.0041368,48.3034242 39.7360728,50.8022117 42.2333149,52 C43.2385549,51.5830827 44.3430778,51.3522165 45.5,51.3522165 C46.661059,51.3522165 47.7669608,51.5830827 48.7708218,52 C51.268064,50.8008536 53,48.3020662 53,45.3850034 M45.5,50.3065283 C42.7462769,50.2983801 40.5124104,48.1024348 40.5055157,45.3850034 C40.5124104,42.664856 42.7462769,40.4648366 45.5,40.4594044 C48.2619967,40.4648366 50.4986211,42.664856 50.5041368,45.3850034 C50.4986211,48.1024348 48.2619967,50.2983801 45.5,50.3065283" id="Fill-61" fill="#DF852D"></path>
                <path d="M42,51.4587332 C43.0630669,51.7946257 44.2383463,52 45.4977853,52 C46.7601772,52 47.9369331,51.7946257 49,51.4577735 C47.9251213,51.1641075 46.7409829,51 45.4977853,51 C44.2590171,51.0009597 43.0763552,51.1641075 42,51.4587332" id="Fill-63" fill="#006647"></path>
            </g>
        </g>
    </g>
</svg>