<?xml version="1.0" encoding="UTF-8"?>
<svg width="300px" height="86px" viewBox="0 0 300 86" version="1.1" xmlns="http://www.w3.org/2000/svg" xmlns:xlink="http://www.w3.org/1999/xlink">
    <!-- Generator: Sketch 43.2 (39069) - http://www.bohemiancoding.com/sketch -->
    <title>apoio-faperj</title>
    <desc>Created with Sketch.</desc>
    <defs>
        <polygon id="path-1" points="0.0399690355 0.048619469 70.9617609 0.048619469 70.9617609 40.9262726 0.0399690355 40.9262726 0.0399690355 0.048619469"></polygon>
    </defs>
    <g id="Page-1" stroke="none" stroke-width="1" fill="none" fill-rule="evenodd">
        <g id="apoio-faperj">
            <g id="Page-1" transform="translate(9.000000, 2.000000)">
                <path d="M245.338071,70 L262.197878,70 C263.053529,70 263.880199,69.8802932 264.684048,69.6471412 C266.145393,69.212145 267.281069,68.5148989 268.100132,67.5620327 C269.199582,66.3767511 269.752749,64.3211089 269.767964,61.4105759 L269.767964,44.4413068 C269.827012,42.4759052 270.23274,40.9978023 271,40 L257.313565,40 C258.080826,40.9978023 258.486192,42.4759052 258.54524,44.4413068 L258.54524,61.5380177 C258.54524,62.8430061 258.419536,63.713735 258.176462,64.1560977 C257.733784,64.7712065 256.87777,65.0713944 255.630881,65.0562929 L249.359487,65.0562929 C247.079803,65.0864958 245.449284,64.7487385 244.453077,64.0433891 L245.338071,70 Z M224.03011,52.2657123 L230.301504,52.2657123 C231.261123,52.2657123 231.910288,52.078233 232.242478,51.6955395 C232.485552,51.3132144 232.610893,50.6303331 232.610893,49.6476323 L232.610893,48.1547963 C232.610893,46.7289961 232.485552,45.8439023 232.242478,45.4910435 C231.910288,45.1087183 231.164763,44.928974 229.999382,44.9437071 L224.03011,44.9437071 L224.03011,52.2657123 Z M227.49039,57.2094194 L224.03011,57.2094194 L224.03011,65.5590615 C224.089158,67.50973 224.495248,68.9870962 225.262509,70 L211.576074,70 C212.343334,68.9572616 212.749062,67.4795271 212.807748,65.5590615 L212.807748,44.4413068 C212.749062,42.5212096 212.343334,41.0427384 211.576074,40 L235.850558,40 C237.753495,40 239.222085,40.1653796 240.24039,40.5031369 C242.49073,41.3580277 243.641621,43.2633918 243.700669,46.2192292 L243.700669,52.6856069 C243.700669,54.0436347 243.531133,55.0337021 243.184091,55.6491792 C242.564631,56.7217523 241.560817,57.2543555 240.173734,57.2543555 C239.95964,57.2543555 239.686861,57.239254 239.354671,57.2094194 L243.398184,65.911552 C244.106397,67.4795271 244.858805,68.8449214 245.670261,70 L232.699646,70 L227.49039,57.2094194 Z M194.547093,44.9437071 L194.547093,52.2204079 L203.585045,52.2204079 C205.385825,52.2204079 206.780153,51.9957274 207.77636,51.5378949 L207.77636,57.9519699 C207.186243,57.4569362 206.07194,57.1943179 204.426206,57.1644833 L194.547093,57.1644833 L194.547093,65.0562929 L205.481823,65.0562929 C206.477668,65.0562929 207.879603,64.711169 209.679658,64.0209211 L208.705911,70 L182.092695,70 C182.859956,68.9572616 183.265684,67.4795271 183.324369,65.5590615 L183.324369,44.4413068 C183.265684,42.5212096 182.859956,41.0427384 182.092695,40 L208.078482,40 L208.941741,45.6265884 C207.879603,45.2442633 206.942444,45.0339476 206.130988,44.9890115 C205.629262,44.9588086 204.832296,44.9437071 203.732846,44.9437071 L194.547093,44.9437071 Z M159.980161,54.2837849 L165.646586,54.2837849 C166.952523,54.2988864 167.800929,54.0362681 168.192167,53.49593 C168.435603,53.098135 168.561307,52.1983081 168.561307,50.7876094 L168.561307,48.4398826 C168.561307,47.1345259 168.435603,46.2192292 168.192167,45.6943609 C167.96322,45.2814645 167.60205,45.0490491 167.114814,44.9890115 C167.026061,44.9588086 166.731546,44.9437071 166.229458,44.9437071 L159.980161,44.9437071 L159.980161,54.2837849 Z M159.980161,59.2274921 L159.980161,65.5365935 C160.039209,67.5019951 160.452544,68.9870962 161.234657,70 L147.658711,70 C148.426334,68.9572616 148.832062,67.4717922 148.890748,65.5365935 L148.890748,44.4413068 C148.832062,42.5212096 148.426334,41.0427384 147.658711,40 L171.799885,40 C173.703908,40 175.164529,40.1653796 176.168343,40.5031369 C178.418684,41.3580277 179.569212,43.2560252 179.627898,46.2192292 L179.627898,53.0307309 C179.584065,55.1239426 178.964243,56.6992842 177.769157,57.7571241 C176.994289,58.447372 175.931789,58.8897347 174.589264,59.0923154 C174.057833,59.1821876 173.128282,59.2274921 171.799885,59.2274921 L159.980161,59.2274921 Z M128.593121,57.0293067 L120.683963,57.0293067 L124.808259,47.7345333 L128.593121,57.0293067 Z M121.134248,40 C121.628367,40.5101352 122.019605,41.102776 122.321727,41.7779224 L111.903938,64.3513119 C110.85629,66.6393694 109.68294,68.5222655 108.384248,70 L116.662547,70 C116.286524,69.1974119 116.102135,68.5521001 116.102135,68.064433 C116.102135,67.4644256 116.271671,66.7668111 116.618352,65.9789562 L118.455719,61.8680401 L130.585535,61.8680401 L131.943275,65.0787609 C132.437393,66.204005 132.68083,67.1867058 132.68083,68.0194969 C132.68083,68.7546808 132.437393,69.4150941 131.943275,70 L146.79509,70 C145.828951,68.927427 145.061328,67.7498803 144.500916,66.4592567 L134.14942,40 L121.134248,40 Z M96.454036,44.9437071 L96.454036,52.1754718 L106.267218,52.1754718 C107.59489,52.1905732 108.856631,51.9430564 110.05208,51.4255546 L110.05208,58.0193741 C109.203674,57.606846 108.458511,57.3596975 107.823837,57.2771919 C107.174672,57.1718499 106.333511,57.1195472 105.293109,57.1195472 L96.454036,57.1195472 L96.454036,65.5365935 C96.5130839,67.5170966 96.9188118,69.0021977 97.6864345,70 L84,70 C84.7668982,68.9572616 85.1726262,67.4717922 85.2316741,65.5365935 L85.2316741,44.4413068 C85.1726262,42.5212096 84.7668982,41.0427384 84,40 L109.837986,40 L110.74544,45.6718928 C109.808643,45.3039325 108.959875,45.0939852 108.192976,45.0339476 C107.558302,44.9890115 106.355609,44.9588086 104.584534,44.9437071 L96.454036,44.9437071 Z" id="Fill-1" fill="#221F20"></path>
                <path d="M30,60 L33.7712114,54.7585118 C42.0149734,54.7585118 52.6977582,48.5844933 58.8784436,40 L64,40.0132222 C55.9616557,51.1778749 40.8504654,60 30,60" id="Fill-3" fill="#221F20"></path>
                <path d="M59,20 L55.164811,25.1224607 C46.9661421,25.1224607 35.4043354,31.7890073 29.2604134,40 L24,39.9924362 C32.4820447,28.6568938 47.5379735,20 59,20" id="Fill-5" fill="#221F20"></path>
                <path d="M62.8194616,15 C76.2175449,15 78.9760053,26.582048 69.0299218,39.9975007 L63.9371875,40 C72.1108924,28.986361 70.0884257,20.1463867 59,20.1463867 L62.8194616,15 Z" id="Fill-7" fill="#221F20"></path>
                <path d="M25.3363695,65 C12.263774,65 8.82015814,53.7620647 18.6965665,40 L23.8683165,40 C15.8195059,51.2041398 18.0639365,59.8965056 29,59.8965056 L25.3363695,65 Z" id="Fill-9" fill="#221F20"></path>
                <path d="M67,10 L63.2487339,15.156768 C49.5897036,15.3198191 28.8663427,27.2155411 19.1796661,41 L14,40.9948355 C26.4647232,23.8578687 50.8559004,10 67,10" id="Fill-11" fill="#221F20"></path>
                <path d="M22,70 L25.7568714,64.844506 C39.4805877,64.6878084 59.9831021,53.496931 69.7768899,40 L75,40 C62.6990755,56.3774221 38.4944546,70 22,70" id="Fill-13" fill="#221F20"></path>
                <path d="M79.5995429,40.9974445 L74.5267885,41 C86.2802834,24.653389 83.0901097,10.3215836 67,10.3215836 L70.8291273,5 C89.7856931,5 93.5501476,21.5955867 79.5995429,40.9974445" id="Fill-15" fill="#221F20"></path>
                <path d="M14,80 L17.8129287,74.9328387 C37.2185568,74.9328387 64.7410022,59.8926494 79.7105601,40 L85,40.002509 C67.8901181,62.7396794 36.9349475,80 14,80" id="Fill-17" fill="#221F20"></path>
                <path d="M29.1902871,40.0052206 L34.4769343,40 C29.506032,46.5362337 30.2836396,49.431821 37,49.7737725 L33.1177484,55 C22.3599981,55 23.6457634,47.6974518 29.1902871,40.0052206" id="Fill-19" fill="#221F20"></path>
                <path d="M58.2380932,41 L53.120281,40.9974581 C57.0044059,35.5101315 56.4970888,31.2756191 51,31.2756191 L54.7266698,26 C61.72114,26.1162031 65.1273626,31.0842472 58.2380932,41" id="Fill-21" fill="#221F20"></path>
                <g id="Group-25" transform="translate(3.000000, 0.000000)">
                    <mask id="mask-2" fill="white">
                        <use xlink:href="#path-1"></use>
                    </mask>
                    <g id="Clip-24"></g>
                    <path d="M70.9617609,0.0485469027 L67.2164208,5.13871504 C47.1792838,5.00736991 19.6262381,21.3282726 5.16710609,40.9262726 L0.0399690355,40.9262726 C16.7224462,18.314954 48.6439741,0.0485469027 70.9617609,0.0485469027" id="Fill-23" fill="#221F20" mask="url(#mask-2)"></path>
                </g>
                <path d="M8.51178762,40.0100437 L13.8313949,40 C1.4641712,56.4310677 5.29167137,69.8117326 22,69.8117326 L18.0950775,75 C-1.54039826,75 -5.90949152,59.1704757 8.51178762,40.0100437" id="Fill-26" fill="#221F20"></path>
            </g>
        </g>
    </g>
</svg>