<?xml version="1.0" encoding="UTF-8"?>
<svg width="258px" height="86px" viewBox="0 0 258 86" version="1.1" xmlns="http://www.w3.org/2000/svg" xmlns:xlink="http://www.w3.org/1999/xlink">
    <!-- Generator: Sketch 43.2 (39069) - http://www.bohemiancoding.com/sketch -->
    <title>apoio-cnpq</title>
    <desc>Created with Sketch.</desc>
    <defs>
        <polygon id="path-1" points="3.22033898e-05 0.135352941 75.9150153 0.135352941 75.9150153 77.6820681 3.22033898e-05 77.6820681 3.22033898e-05 0.135352941"></polygon>
    </defs>
    <g id="Page-1" stroke="none" stroke-width="1" fill="none" fill-rule="evenodd">
        <g id="apoio-cnpq">
            <g id="Page-1" transform="translate(0.000000, 4.000000)">
                <path d="M62.3435138,26.8097694 C63.5998177,31.9174435 63.4565774,34.6908016 62.5945832,38.8137115 C61.4461083,43.3743664 58.9692308,46.8040178 56.6359126,48.9204341 L65,78 L56.7073733,78 C53.9433771,67.345934 50.4976334,55.5975053 47.6258081,44.9800801 C49.3127901,44.0679491 54.0512061,41.3315562 54.8050522,34.9096741 C55.5588984,28.9258614 51.8617663,24.2559323 49.3485205,22.5406203 C47.1590807,21.1547518 43.8923077,20.0960573 40.8411927,20.7166825 C34.9539829,21.3736244 30.969094,26.0069125 30.0359582,31.1515518 C29.9284482,31.8448103 29.9284482,32.2099221 29.8203001,33.1586939 C29.8203001,33.1586939 27.5233504,39.7258425 26.7695042,41.8059421 L28.4925356,41.8059421 L28.4564862,58.8442765 L48.4153846,58.8442765 L50.7126534,67.1637023 L20.2002279,67.1637023 L20.2002279,48.0815849 L16,48.0446197 C17.5076923,43.4110073 21.4208015,33.1586939 21.4208015,33.1586939 C21.8875289,29.4368882 22.1025489,22.3587129 29.5331814,16.557456 C33.0156125,13.601542 38.4360949,11.5950484 44.2151567,12.0694344 C53.8358671,13.2733954 60.1898044,19.9504666 62.3435138,26.8097694" id="Fill-1" fill="#00548E"></path>
                <g id="Group-5">
                    <mask id="mask-2" fill="white">
                        <use xlink:href="#path-1"></use>
                    </mask>
                    <g id="Clip-4"></g>
                    <path d="M71.3492186,18.3833874 C77.4730153,32.1382613 73.4872017,45.0823286 68.9577949,51.2043454 L75.9150153,77.571295 L67.6889814,77.571295 L59.6448966,49.1756899 C64.6093712,44.3079 67.7256932,34.4251689 65.2975576,26.2748244 C63.1235068,18.0510681 56.3833373,11.0818664 46.8169983,9.16398403 C36.5985407,7.02521092 26.9236763,12.3724714 22.7923034,19.7477319 C20.1838288,23.8043874 19.7126932,27.7132361 19.2779475,32.4705807 C19.2779475,32.4705807 14.1321678,45.0823286 12.3928627,49.6548328 L17.8645407,49.6548328 L17.9006085,69.0525807 L51.6726254,69.0525807 L54.0279814,77.6820681 L9.53030339,77.6820681 L9.53030339,57.252295 L3.22033898e-05,57.2149336 C3.22033898e-05,57.2149336 10.3270153,33.170942 10.2909475,32.4705807 C10.8709305,24.0623118 14.6029814,13.589337 22.5024729,7.35687479 C26.5249983,4.14838739 31.8878288,1.05067311 39.0991339,0.349984034 C46.8894559,-0.424444538 50.2231508,1.01396723 55.4053203,2.78404286 C64.1382356,6.58244622 70.0443373,15.1378664 71.3492186,18.3833874" id="Fill-3" fill="#00548E" mask="url(#mask-2)"></path>
                </g>
                <path d="M34,33.5186784 C34,28.7938666 37.5980208,25 42.0001552,25 C46.4019792,25 50,28.7938666 50,33.5186784 C50,38.2058029 46.4019792,42 42.0001552,42 C37.5980208,42 34,38.2058029 34,33.5186784" id="Fill-6" fill="#00548E"></path>
                <path d="M230.907574,46.8390219 L230.907574,46.898588 C230.985893,46.3448195 231.10386,45.7219936 231.260824,45.0301103 C231.417787,44.3375725 231.633572,43.6355433 231.908502,42.9236955 C232.419041,41.4607256 233.155438,40.126052 234.118019,38.9196746 C235.079625,37.7136245 236.32656,37.1104358 237.858176,37.1104358 C239.546755,37.1104358 240.685473,37.69366 241.274331,38.8601085 C241.863514,40.0268842 242.157617,41.3222835 242.157617,42.7459791 C242.157617,43.4974285 242.108871,44.2390593 242.010403,44.9705442 C241.912585,45.7023565 241.765046,46.3448195 241.56876,46.898588 C240.665324,50.3782962 239.61565,52.6526089 238.417461,53.7205442 C237.220246,54.7884795 235.796199,55.3219562 234.146942,55.3219562 C232.732968,55.3219562 231.761288,54.8477183 231.231251,53.898588 C230.701214,52.9494576 230.436358,51.8222835 230.436358,50.5170656 C230.436358,50.2005798 230.445782,49.894567 230.465281,49.5977183 C230.485104,49.3011969 230.514677,48.9945296 230.553999,48.678371 C230.593322,48.4014868 230.642393,48.1046381 230.701214,47.7881522 C230.760035,47.4719936 230.82893,47.1555078 230.907574,46.8390219 L230.907574,46.8390219 Z M218.890911,50.1020666 L218.890911,50.1609781 C218.890911,50.7939499 218.911059,51.4760146 218.950056,52.2078268 C218.989378,52.939639 219.068023,53.6613054 219.185989,54.3731532 C219.499917,56.3502899 220.334457,58.1595287 221.68896,59.8008696 C223.044113,61.4422106 225.507761,62.2627174 229.081205,62.2627174 C230.25957,62.2627174 231.319644,62.1642042 232.262402,61.966196 C233.204184,61.7681878 234.127443,61.432392 235.030878,60.9578268 C235.698056,60.5624649 236.375632,60.0581167 237.062958,59.4454367 C237.749958,58.8321021 238.486356,58.0511969 239.271499,57.101412 L236.031807,73 L247.164858,73 L256,31.4156536 L244.867273,31.4156536 L243.925166,35.2125023 C243.806874,35.0144941 243.689233,34.8266318 243.571591,34.6482607 C243.453625,34.4705442 243.316484,34.2826819 243.159521,34.0850009 C242.374052,33.0962689 241.382548,32.1769216 240.184684,31.3263045 C238.986495,30.4763419 237.602744,30.0511969 236.031807,30.0511969 C230.848103,30.2488779 227.019878,31.8506172 224.54583,34.8560875 C222.072107,37.8618852 220.422526,41.1442398 219.597735,44.7034786 C219.401774,45.6526089 219.244485,46.5821021 219.126519,47.4919581 C219.008877,48.4014868 218.930558,49.2714139 218.890911,50.1020666 L218.890911,50.1020666 Z M198.510972,37.9407612 C200.277545,37.9803628 201.81891,37.4367402 203.134415,36.3095661 C204.450246,35.182392 205.284461,33.9465588 205.637711,32.6020666 C205.716355,32.364784 205.775501,32.1275014 205.814823,31.8902188 C205.853495,31.6529362 205.873644,31.4156536 205.873644,31.178371 C205.873644,30.1104358 205.451174,29.1910885 204.60721,28.4196746 C203.76292,27.6489153 202.339522,27.2630447 200.336691,27.2630447 L194.328197,27.2034786 L191.972116,37.9407612 L198.510972,37.9407612 Z M183.667011,18.364784 L203.575734,18.364784 C204.086597,18.4043856 204.597135,18.4335141 205.107349,18.4538059 C205.618212,18.4737703 206.128426,18.5028988 206.638964,18.5425005 C209.701869,18.7401814 212.509993,19.5312325 215.06236,20.9153264 C217.615052,22.3000748 218.890911,24.8902188 218.890911,28.6867402 C218.890911,34.9748925 216.908228,39.5028988 212.942212,42.2714139 C208.975871,45.0399289 204.302706,46.4240228 198.922717,46.4240228 L190.146396,46.364784 L186.906704,61.3139143 L174.831219,61.3139143 L183.667011,18.364784 Z M134.011221,18.364784 L125.176079,61.3139143 L136.308806,61.3139143 L142.788517,28.6271741 L150.680901,61.3139143 L167.409402,61.3139143 L176.657264,18.364784 L165.524862,18.364784 L158.573935,49.1529362 L151.152117,18.364784 L134.011221,18.364784 Z M82,45.8898915 C82,44.3473911 82.1176416,42.6176828 82.3532497,40.6994576 C82.5891828,38.7812325 83.0015782,36.853516 83.590111,34.9153264 C84.9647624,30.5257621 87.5272037,26.4818122 91.2771099,22.783804 C95.027341,19.0864503 100.750831,17.1580793 108.447579,17 C109.350689,17 110.31262,17.0297831 111.333697,17.0893492 C112.354449,17.148588 113.395349,17.2572471 114.455748,17.4156536 C117.440334,17.8506172 120.188987,18.8193847 122.702032,20.3219562 C125.215077,21.8248551 126.472087,24.2768842 126.472087,27.6780438 C126.472087,28.1922106 126.442514,28.7263419 126.383368,29.2801103 C126.324872,29.8338788 126.216655,30.4069572 126.059691,31 L113.100595,30.9404339 C113.139917,30.7434075 113.16949,30.5355807 113.189314,30.3179353 C113.208812,30.1002899 113.218562,29.9124275 113.218562,29.7546755 C113.218562,28.33098 112.816241,27.2826819 112.010948,26.6101085 C111.205981,25.9381896 110.332444,25.4835889 109.390011,25.2459791 C108.879473,25.1275014 108.378684,25.0482981 107.887644,25.0086965 C107.396929,24.9694221 106.974784,24.9491304 106.62186,24.9491304 C106.26796,24.9491304 105.914385,24.9789134 105.561136,25.0384795 C105.207561,25.0977183 104.854636,25.167103 104.500737,25.2459791 C102.734163,25.7997475 101.025761,27.1540584 99.3765042,29.3092388 C97.7272474,31.4650739 96.4312403,34.6780438 95.4888079,38.9494576 C95.4101636,39.3052179 95.3412685,39.6613054 95.2827727,40.0170656 C95.2239519,40.3731532 95.1745554,40.7292407 95.1355582,41.0850009 C95.0175917,41.8364503 94.929198,42.5679353 94.8700523,43.2801103 C94.8115565,43.9916308 94.7819836,44.6838414 94.7819836,45.3560875 C94.7819836,47.6104358 95.2239519,49.5283336 96.1072386,51.1101085 C96.9911752,52.6922106 98.6501813,53.4832616 101.084257,53.4832616 L101.732585,53.4832616 C101.968193,53.4832616 102.203801,53.4636245 102.43941,53.4240228 C102.831981,53.4240228 103.234303,53.3742753 103.647023,53.2757621 C104.059093,53.1765944 104.500737,53.0286609 104.971953,52.83098 C106.111321,52.3164859 107.17172,51.5355807 108.152825,50.4872826 C109.13458,49.4393118 109.704264,48.2434075 109.861227,46.898588 L122.348782,46.8390219 C122.388104,46.9574995 122.417352,47.0664859 122.437176,47.1653264 C122.456674,47.2641668 122.466424,47.3731532 122.466424,47.4919581 C122.466424,48.2038059 122.210992,49.1922106 121.700779,50.4578268 C121.19024,51.7234431 120.365449,53.0479708 119.226731,54.432392 C117.577474,56.409856 115.211644,58.2092762 112.12924,59.8306527 C109.046511,61.4517019 105.070421,62.2627174 100.20097,62.2627174 L99.7297539,62.2627174 L99.1997169,62.2627174 C92.6026898,62.2627174 88.1846316,60.898588 85.9461921,58.1693473 C83.7080775,55.4410885 82.431894,52.4153264 82.1176416,49.0933701 C82.0786444,48.5792033 82.0490715,48.0552179 82.0295729,47.5214139 C82.0097493,46.9876099 82,46.4636245 82,45.9494576 L82,45.8898915 Z" id="Fill-14" fill="#00548E"></path>
            </g>
        </g>
    </g>
</svg>